<?xml version="1.0" encoding="utf-8"?>
<!-- Generator: Adobe Illustrator 22.1.0, SVG Export Plug-In . SVG Version: 6.00 Build 0)  -->
<svg version="1.1" id="Layer_1" xmlns="http://www.w3.org/2000/svg" xmlns:xlink="http://www.w3.org/1999/xlink" x="0px" y="0px"
	 viewBox="0 0 100 100" style="enable-background:new 0 0 100 100;" xml:space="preserve">
<style type="text/css">
	.st0{fill:#DD0000;}
</style>
<g>
	<g>
		<g>
			<path class="st0" d="M98.9,25.5c-1.1-0.7-5.2-3.6-11.9-10.3C80.4,8.5,77.5,4.4,76.7,3.3c-0.1-0.2-0.3-0.2-0.4,0
				C75.6,4.4,72.7,8.5,66,15.2c-6.7,6.7-10.8,9.6-11.9,10.3c-0.2,0.1-0.2,0.3,0,0.4c1.1,0.7,5.1,3.5,11.6,10
				c0.1,0.1,0.4,0.4,0.5,0.5c6.5,6.5,9.3,10.5,10,11.6c0.1,0.2,0.3,0.2,0.4,0c0.7-1.1,3.6-5.2,10.3-11.9c6.7-6.7,10.8-9.6,11.9-10.3
				C99.1,25.8,99.1,25.6,98.9,25.5z"/>
		</g>
	</g>
	<g>
		<path d="M34.8,17c-0.1,0-0.1-0.2-0.1-0.4c0.1-0.7,0.2-1.5,0.2-2.2C34.9,8.1,29.9,3,23.6,3c-6.3,0-11.4,5.1-11.4,11.4
			c0,0.8,0.1,1.5,0.2,2.2c0,0.2,0,0.4-0.1,0.4c0,0-0.1,0-0.1,0C6,17,0.9,22.1,0.9,28.3c0,6.3,5.1,11.4,11.4,11.4
			c5.2,0,9.6-3.5,10.9-8.3c0.1-0.2,0.1-0.2,0,0c-0.7,4.2-2.9,10.6-9.4,12.8c-0.2,0.1-0.2,0.1,0,0.1h19.6c0.2,0,0.2,0,0-0.1
			c-6.5-2.2-8.7-8.6-9.4-12.8c0-0.2,0-0.2,0,0c1.4,4.8,5.7,8.3,10.9,8.3c6.3,0,11.4-5.1,11.4-11.4c0-6.3-5.1-11.4-11.4-11.4
			C34.9,17,34.8,17,34.8,17z"/>
	</g>
	<g>
		<path class="st0" d="M29,58.3L23.8,64c-0.1,0.2-0.4,0.2-0.5,0l-5.2-5.7C14.2,54,7.8,54,3.8,58.3c-3.9,4.3-3.9,11.5,0,15.8
			l19.5,21.5c0.1,0.2,0.4,0.2,0.5,0l19.5-21.5c3.9-4.3,3.9-11.5,0-15.8C39.4,54,32.9,54,29,58.3z"/>
	</g>
	<g>
		<path d="M76.8,55c-0.1-0.2-0.4-0.2-0.5,0L59.6,74.3c-3.4,3.9-3.4,10.3,0,14.2c3.4,3.9,8.9,3.9,12.3,0l3.9-4.5
			c0.1-0.2,0.2-0.1,0.2,0.1c-0.9,4.2-3.3,10-9.4,12.1c-0.2,0.1-0.2,0.1,0,0.1h19.9c0.2,0,0.2,0,0-0.1c-6.1-2.1-8.5-7.9-9.4-12.1
			c0-0.2,0-0.2,0.2-0.1l3.9,4.5c3.4,3.9,8.9,3.9,12.3,0c3.4-3.9,3.4-10.3,0-14.2L76.8,55z"/>
	</g>
</g>
</svg>
